<mxfile host="app.diagrams.net" modified="2023-10-24T02:04:50.124Z" agent="Mozilla/5.0 (Windows NT 10.0; Win64; x64) AppleWebKit/537.36 (KHTML, like Gecko) Chrome/118.0.0.0 Safari/537.36" etag="VI7CFl1C5P9KorXzvGKn" version="22.0.6" type="github">
  <diagram name="ページ1" id="zpHgbQW07-FmEmH62DgC">
    <mxGraphModel dx="1101" dy="603" grid="1" gridSize="10" guides="1" tooltips="1" connect="1" arrows="1" fold="1" page="1" pageScale="1" pageWidth="827" pageHeight="1169" math="0" shadow="0">
      <root>
        <mxCell id="0" />
        <mxCell id="1" parent="0" />
        <mxCell id="nUVPZtQ5XLbmJ3hW5yKJ-1" value="" style="shape=image;verticalLabelPosition=bottom;labelBackgroundColor=default;verticalAlign=top;aspect=fixed;imageAspect=0;image=https://learn.microsoft.com/en-us/azure/virtual-machines/media/virtual-machines-common-states-lifecycle/vm-power-states.png;" vertex="1" parent="1">
          <mxGeometry x="40" y="30" width="715.12" height="250" as="geometry" />
        </mxCell>
        <mxCell id="nUVPZtQ5XLbmJ3hW5yKJ-2" value="&lt;table aria-label=&quot;Table 1&quot; class=&quot;table table-sm&quot; style=&quot;box-sizing: inherit; outline-color: inherit; border-collapse: collapse; border-spacing: 0px; table-layout: auto; width: 751.875px; font-size: 0.875rem; margin-top: 1rem; border: 1px solid var(--theme-table-border-dark); color: rgb(22, 22, 22); font-family: &amp;quot;Segoe UI&amp;quot;, SegoeUI, &amp;quot;Helvetica Neue&amp;quot;, Helvetica, Arial, sans-serif; font-style: normal; font-variant-ligatures: normal; font-variant-caps: normal; font-weight: 400; letter-spacing: normal; orphans: 2; text-align: start; text-transform: none; widows: 2; word-spacing: 0px; -webkit-text-stroke-width: 0px; background-color: rgb(255, 255, 255); text-decoration-thickness: initial; text-decoration-style: initial; text-decoration-color: initial;&quot;&gt;&lt;thead style=&quot;box-sizing: inherit; outline-color: inherit;&quot;&gt;&lt;tr style=&quot;box-sizing: inherit; outline-color: inherit;&quot;&gt;&lt;th style=&quot;box-sizing: inherit; outline-color: inherit; padding: 0.5rem; overflow-wrap: break-word; border-block-start: 1px solid var(--theme-table-border-dark); vertical-align: top; line-height: 1.5; display: table-cell; text-align: left;&quot;&gt;Power state&lt;/th&gt;&lt;th style=&quot;box-sizing: inherit; outline-color: inherit; padding: 0.5rem; overflow-wrap: break-word; border-block-start: 1px solid var(--theme-table-border-dark); vertical-align: top; line-height: 1.5; display: table-cell; text-align: left;&quot;&gt;Description&lt;/th&gt;&lt;th style=&quot;box-sizing: inherit; outline-color: inherit; padding: 0.5rem; overflow-wrap: break-word; border-block-start: 1px solid var(--theme-table-border-dark); vertical-align: top; line-height: 1.5; display: table-cell; text-align: left;&quot;&gt;Billing&lt;/th&gt;&lt;/tr&gt;&lt;/thead&gt;&lt;tbody style=&quot;box-sizing: inherit; outline-color: inherit;&quot;&gt;&lt;tr style=&quot;box-sizing: inherit; outline-color: inherit;&quot;&gt;&lt;td style=&quot;box-sizing: inherit; outline-color: inherit; padding: 0.5rem; overflow-wrap: break-word; border-block-start: 1px solid var(--theme-table-border-dark); vertical-align: top; line-height: 1.5; display: table-cell; text-align: left;&quot;&gt;Creating&lt;/td&gt;&lt;td style=&quot;box-sizing: inherit; outline-color: inherit; padding: 0.5rem; overflow-wrap: break-word; border-block-start: 1px solid var(--theme-table-border-dark); vertical-align: top; line-height: 1.5; display: table-cell; text-align: left;&quot;&gt;Virtual machine is allocating resources.&lt;/td&gt;&lt;td style=&quot;box-sizing: inherit; outline-color: inherit; padding: 0.5rem; overflow-wrap: break-word; border-block-start: 1px solid var(--theme-table-border-dark); vertical-align: top; line-height: 1.5; display: table-cell; text-align: left;&quot;&gt;Not Billed*&lt;/td&gt;&lt;/tr&gt;&lt;tr style=&quot;box-sizing: inherit; outline-color: inherit;&quot;&gt;&lt;td style=&quot;box-sizing: inherit; outline-color: inherit; padding: 0.5rem; overflow-wrap: break-word; border-block-start: 1px solid var(--theme-table-border-dark); vertical-align: top; line-height: 1.5; display: table-cell; text-align: left;&quot;&gt;Starting&lt;/td&gt;&lt;td style=&quot;box-sizing: inherit; outline-color: inherit; padding: 0.5rem; overflow-wrap: break-word; border-block-start: 1px solid var(--theme-table-border-dark); vertical-align: top; line-height: 1.5; display: table-cell; text-align: left;&quot;&gt;Virtual machine is powering up.&lt;/td&gt;&lt;td style=&quot;box-sizing: inherit; outline-color: inherit; padding: 0.5rem; overflow-wrap: break-word; border-block-start: 1px solid var(--theme-table-border-dark); vertical-align: top; line-height: 1.5; display: table-cell; text-align: left;&quot;&gt;Billed&lt;/td&gt;&lt;/tr&gt;&lt;tr style=&quot;box-sizing: inherit; outline-color: inherit;&quot;&gt;&lt;td style=&quot;box-sizing: inherit; outline-color: inherit; padding: 0.5rem; overflow-wrap: break-word; border-block-start: 1px solid var(--theme-table-border-dark); vertical-align: top; line-height: 1.5; display: table-cell; text-align: left;&quot;&gt;Running&lt;/td&gt;&lt;td style=&quot;box-sizing: inherit; outline-color: inherit; padding: 0.5rem; overflow-wrap: break-word; border-block-start: 1px solid var(--theme-table-border-dark); vertical-align: top; line-height: 1.5; display: table-cell; text-align: left;&quot;&gt;Virtual machine is fully up. This state is the standard working state.&lt;/td&gt;&lt;td style=&quot;box-sizing: inherit; outline-color: inherit; padding: 0.5rem; overflow-wrap: break-word; border-block-start: 1px solid var(--theme-table-border-dark); vertical-align: top; line-height: 1.5; display: table-cell; text-align: left;&quot;&gt;Billed&lt;/td&gt;&lt;/tr&gt;&lt;tr style=&quot;box-sizing: inherit; outline-color: inherit;&quot;&gt;&lt;td style=&quot;box-sizing: inherit; outline-color: inherit; padding: 0.5rem; overflow-wrap: break-word; border-block-start: 1px solid var(--theme-table-border-dark); vertical-align: top; line-height: 1.5; display: table-cell; text-align: left;&quot;&gt;Stopping&lt;/td&gt;&lt;td style=&quot;box-sizing: inherit; outline-color: inherit; padding: 0.5rem; overflow-wrap: break-word; border-block-start: 1px solid var(--theme-table-border-dark); vertical-align: top; line-height: 1.5; display: table-cell; text-align: left;&quot;&gt;This state is transitional between running and stopped.&lt;/td&gt;&lt;td style=&quot;box-sizing: inherit; outline-color: inherit; padding: 0.5rem; overflow-wrap: break-word; border-block-start: 1px solid var(--theme-table-border-dark); vertical-align: top; line-height: 1.5; display: table-cell; text-align: left;&quot;&gt;Billed&lt;/td&gt;&lt;/tr&gt;&lt;tr style=&quot;box-sizing: inherit; outline-color: inherit;&quot;&gt;&lt;td style=&quot;box-sizing: inherit; outline-color: inherit; padding: 0.5rem; overflow-wrap: break-word; border-block-start: 1px solid var(--theme-table-border-dark); vertical-align: top; line-height: 1.5; display: table-cell; text-align: left;&quot;&gt;Stopped&lt;/td&gt;&lt;td style=&quot;box-sizing: inherit; outline-color: inherit; padding: 0.5rem; overflow-wrap: break-word; border-block-start: 1px solid var(--theme-table-border-dark); vertical-align: top; line-height: 1.5; display: table-cell; text-align: left;&quot;&gt;The virtual machine is allocated on a host but not running. Also called&lt;span&gt;&amp;nbsp;&lt;/span&gt;&lt;em style=&quot;box-sizing: inherit; outline-color: inherit;&quot;&gt;PoweredOff&lt;/em&gt;&lt;span&gt;&amp;nbsp;&lt;/span&gt;state or&lt;span&gt;&amp;nbsp;&lt;/span&gt;&lt;em style=&quot;box-sizing: inherit; outline-color: inherit;&quot;&gt;Stopped (Allocated)&lt;/em&gt;. This state can be result of invoking the&lt;span&gt;&amp;nbsp;&lt;/span&gt;&lt;code style=&quot;box-sizing: inherit; outline-color: inherit; font-family: SFMono-Regular, Consolas, &amp;quot;Liberation Mono&amp;quot;, Menlo, Courier, monospace; font-size: 11.9px; direction: ltr; background-color: var(--theme-inline-code); overflow-wrap: break-word; border-radius: 3px; padding: 0.1em 0.2em;&quot;&gt;PowerOff&lt;/code&gt;&lt;span&gt;&amp;nbsp;&lt;/span&gt;API operation or invoking shutdown from within the guest OS. The&lt;span&gt;&amp;nbsp;&lt;/span&gt;&lt;em style=&quot;box-sizing: inherit; outline-color: inherit;&quot;&gt;Stopped&lt;/em&gt;&lt;span&gt;&amp;nbsp;&lt;/span&gt;state may also be observed briefly during VM creation or while starting a VM from&lt;span&gt;&amp;nbsp;&lt;/span&gt;&lt;em style=&quot;box-sizing: inherit; outline-color: inherit;&quot;&gt;Deallocated&lt;/em&gt;&lt;span&gt;&amp;nbsp;&lt;/span&gt;state.&lt;/td&gt;&lt;td style=&quot;box-sizing: inherit; outline-color: inherit; padding: 0.5rem; overflow-wrap: break-word; border-block-start: 1px solid var(--theme-table-border-dark); vertical-align: top; line-height: 1.5; display: table-cell; text-align: left;&quot;&gt;Billed&lt;/td&gt;&lt;/tr&gt;&lt;tr style=&quot;box-sizing: inherit; outline-color: inherit;&quot;&gt;&lt;td style=&quot;box-sizing: inherit; outline-color: inherit; padding: 0.5rem; overflow-wrap: break-word; border-block-start: 1px solid var(--theme-table-border-dark); vertical-align: top; line-height: 1.5; display: table-cell; text-align: left;&quot;&gt;Deallocating&lt;/td&gt;&lt;td style=&quot;box-sizing: inherit; outline-color: inherit; padding: 0.5rem; overflow-wrap: break-word; border-block-start: 1px solid var(--theme-table-border-dark); vertical-align: top; line-height: 1.5; display: table-cell; text-align: left;&quot;&gt;This state is transitional between&lt;span&gt;&amp;nbsp;&lt;/span&gt;&lt;em style=&quot;box-sizing: inherit; outline-color: inherit;&quot;&gt;Running&lt;/em&gt;&lt;span&gt;&amp;nbsp;&lt;/span&gt;and&lt;span&gt;&amp;nbsp;&lt;/span&gt;&lt;em style=&quot;box-sizing: inherit; outline-color: inherit;&quot;&gt;Deallocated&lt;/em&gt;.&lt;/td&gt;&lt;td style=&quot;box-sizing: inherit; outline-color: inherit; padding: 0.5rem; overflow-wrap: break-word; border-block-start: 1px solid var(--theme-table-border-dark); vertical-align: top; line-height: 1.5; display: table-cell; text-align: left;&quot;&gt;Not billed*&lt;/td&gt;&lt;/tr&gt;&lt;tr style=&quot;box-sizing: inherit; outline-color: inherit;&quot;&gt;&lt;td style=&quot;box-sizing: inherit; outline-color: inherit; padding: 0.5rem; overflow-wrap: break-word; border-block-start: 1px solid var(--theme-table-border-dark); vertical-align: top; line-height: 1.5; display: table-cell; text-align: left;&quot;&gt;Deallocated&lt;/td&gt;&lt;td style=&quot;box-sizing: inherit; outline-color: inherit; padding: 0.5rem; overflow-wrap: break-word; border-block-start: 1px solid var(--theme-table-border-dark); vertical-align: top; line-height: 1.5; display: table-cell; text-align: left;&quot;&gt;The virtual machine has released the lease on the underlying hardware and is powered off. This state is also referred to as&lt;span&gt;&amp;nbsp;&lt;/span&gt;&lt;em style=&quot;box-sizing: inherit; outline-color: inherit;&quot;&gt;Stopped (Deallocated)&lt;/em&gt;.&lt;/td&gt;&lt;td style=&quot;box-sizing: inherit; outline-color: inherit; padding: 0.5rem; overflow-wrap: break-word; border-block-start: 1px solid var(--theme-table-border-dark); vertical-align: top; line-height: 1.5; display: table-cell; text-align: left;&quot;&gt;Not billed*&lt;/td&gt;&lt;/tr&gt;&lt;/tbody&gt;&lt;/table&gt;" style="text;whiteSpace=wrap;html=1;" vertex="1" parent="1">
          <mxGeometry x="40" y="300" width="750" height="440" as="geometry" />
        </mxCell>
        <mxCell id="nUVPZtQ5XLbmJ3hW5yKJ-3" value="&lt;span style=&quot;color: rgb(22, 22, 22); font-family: &amp;quot;Segoe UI&amp;quot;, SegoeUI, &amp;quot;Helvetica Neue&amp;quot;, Helvetica, Arial, sans-serif; font-size: 16px; font-style: normal; font-variant-ligatures: normal; font-variant-caps: normal; font-weight: 400; letter-spacing: normal; orphans: 2; text-align: start; text-indent: 0px; text-transform: none; widows: 2; word-spacing: 0px; -webkit-text-stroke-width: 0px; background-color: rgb(255, 255, 255); text-decoration-thickness: initial; text-decoration-style: initial; text-decoration-color: initial; float: none; display: inline !important;&quot;&gt;* Some Azure resources, such as&lt;span&gt;&amp;nbsp;&lt;/span&gt;&lt;/span&gt;&lt;a href=&quot;https://azure.microsoft.com/pricing/details/managed-disks&quot; data-linktype=&quot;external&quot; style=&quot;box-sizing: inherit; outline-color: inherit; color: var(--theme-hyperlink); cursor: pointer; overflow-wrap: break-word; text-decoration: none; background-color: rgb(255, 255, 255); outline-style: initial; outline-width: 0px; font-family: &amp;quot;Segoe UI&amp;quot;, SegoeUI, &amp;quot;Helvetica Neue&amp;quot;, Helvetica, Arial, sans-serif; font-size: 16px; font-style: normal; font-variant-ligatures: normal; font-variant-caps: normal; font-weight: 400; letter-spacing: normal; orphans: 2; text-align: start; text-indent: 0px; text-transform: none; widows: 2; word-spacing: 0px; -webkit-text-stroke-width: 0px;&quot;&gt;Disks&lt;/a&gt;&lt;span style=&quot;color: rgb(22, 22, 22); font-family: &amp;quot;Segoe UI&amp;quot;, SegoeUI, &amp;quot;Helvetica Neue&amp;quot;, Helvetica, Arial, sans-serif; font-size: 16px; font-style: normal; font-variant-ligatures: normal; font-variant-caps: normal; font-weight: 400; letter-spacing: normal; orphans: 2; text-align: start; text-indent: 0px; text-transform: none; widows: 2; word-spacing: 0px; -webkit-text-stroke-width: 0px; background-color: rgb(255, 255, 255); text-decoration-thickness: initial; text-decoration-style: initial; text-decoration-color: initial; float: none; display: inline !important;&quot;&gt;&lt;span&gt;&amp;nbsp;&lt;/span&gt;and&lt;span&gt;&amp;nbsp;&lt;/span&gt;&lt;/span&gt;&lt;a href=&quot;https://azure.microsoft.com/pricing/details/bandwidth/&quot; data-linktype=&quot;external&quot; style=&quot;box-sizing: inherit; outline-color: inherit; color: var(--theme-hyperlink); cursor: pointer; overflow-wrap: break-word; text-decoration: none; background-color: rgb(255, 255, 255); outline-style: initial; outline-width: 0px; font-family: &amp;quot;Segoe UI&amp;quot;, SegoeUI, &amp;quot;Helvetica Neue&amp;quot;, Helvetica, Arial, sans-serif; font-size: 16px; font-style: normal; font-variant-ligatures: normal; font-variant-caps: normal; font-weight: 400; letter-spacing: normal; orphans: 2; text-align: start; text-indent: 0px; text-transform: none; widows: 2; word-spacing: 0px; -webkit-text-stroke-width: 0px;&quot;&gt;Networking&lt;/a&gt;&lt;span style=&quot;color: rgb(22, 22, 22); font-family: &amp;quot;Segoe UI&amp;quot;, SegoeUI, &amp;quot;Helvetica Neue&amp;quot;, Helvetica, Arial, sans-serif; font-size: 16px; font-style: normal; font-variant-ligatures: normal; font-variant-caps: normal; font-weight: 400; letter-spacing: normal; orphans: 2; text-align: start; text-indent: 0px; text-transform: none; widows: 2; word-spacing: 0px; -webkit-text-stroke-width: 0px; background-color: rgb(255, 255, 255); text-decoration-thickness: initial; text-decoration-style: initial; text-decoration-color: initial; float: none; display: inline !important;&quot;&gt;&lt;span&gt;&amp;nbsp;&lt;/span&gt;continue to incur charges.&lt;/span&gt;" style="text;whiteSpace=wrap;html=1;" vertex="1" parent="1">
          <mxGeometry x="60" y="770" width="680" height="40" as="geometry" />
        </mxCell>
      </root>
    </mxGraphModel>
  </diagram>
</mxfile>
